<svg width="20" height="20" viewBox="0 0 20 20" fill="none" xmlns="http://www.w3.org/2000/svg">
<path d="M10 5C9.71668 5 9.47901 5.096 9.28701 5.288C9.09501 5.48 8.99935 5.71733 9.00001 6C9.00068 6.28267 9.09668 6.52 9.28801 6.712C9.47935 6.904 9.71668 7 10 7C10.2833 7 10.5207 6.904 10.712 6.712C10.9033 6.52 10.9993 6.28267 11 6C11.0007 5.71733 10.9047 5.47967 10.712 5.287C10.5193 5.09433 10.282 4.99867 10 5ZM11 9L9.00001 9L9.00001 15L11 15L11 9ZM10 8.74228e-07C11.3833 7.53293e-07 12.6833 0.262667 13.9 0.788001C15.1167 1.31333 16.175 2.02567 17.075 2.925C17.975 3.82433 18.6873 4.88267 19.212 6.1C19.7367 7.31733 19.9993 8.61733 20 10C20.0007 11.3827 19.738 12.6827 19.212 13.9C18.686 15.1173 17.9737 16.1757 17.075 17.075C16.1763 17.9743 15.118 18.6867 13.9 19.212C12.682 19.7373 11.382 20 10 20C8.61801 20 7.31801 19.7373 6.10001 19.212C4.88201 18.6867 3.82368 17.9743 2.92501 17.075C2.02635 16.1757 1.31368 15.1173 0.787013 13.9C0.260347 12.6827 -0.0019874 11.3827 1.24772e-05 10C0.00201236 8.61734 0.264679 7.31734 0.788012 6.1C1.31135 4.88267 2.02368 3.82433 2.92501 2.925C3.82634 2.02567 4.88468 1.313 6.10001 0.787002C7.31535 0.261002 8.61535 -0.00133234 10 8.74228e-07Z" fill="#869CB5"/>
</svg>
